# xmcd
#
# Track frame offsets:
#	150
#	13151
#	16311
#	26253
#	32394
#	42621
#	49422
#	58038
#	66602
#	72972
#	79208
#	83578
#	90486
#	93684
#	97420
#	103279
#	106449
#	112596
#	115431
#	119540
#	128210
#	138184
#	146002
#	153865
#	157315
#	160581
#	164430
#	167026
#	174302
#	182154
#	190681
#	203743
#	221038
#	226674
#	233150
#	256276
#	266782
#	272346
#	277150
#	287512
#	297898
#	302415
#	307207
#	315064
#
# Disc length: 4339 seconds
#
# Revision: 1
# Processed by: cddbd v1.5.2PL0 Copyright (c) Steve Scherf et al.
# Submitted via: EasyCDDAExtractor 16.0.6.1
#
DISCID=7810f12c
DTITLE=Ελένη Καραΐνδρου - Ελένη Καραΐνδρου - Μουσική για τη μικρή οθόνη (2015)
DYEAR=2015
DGENRE=Έντεχνο
TTITLE0=Ελένη Καραΐνδρου - ΤΙΤΛΟΙ - Λωξάντρα 1980
TTITLE1=Ελένη Καραΐνδρου - ΚΑΒΟΥΡΝΑΡΙΟ - Λωξάντρα 
TTITLE2=Ελένη Καραΐνδρου - ΘΕΜΑ Λωξάντρας Ι 
TTITLE3=Ελένη Καραΐνδρου - ΑΝΑΠΟΛΗΣΗ Ι - Λωξάντρα 
TTITLE4=Ελένη Καραΐνδρου - ΡΟΜΑΝΤΙΚΟ ΚΛΕΙΟ - Λωξάντρα 
TTITLE5=Ελένη Καραΐνδρου - ΕΙΚΟΝΙΣΜΑ - Λωξάντρα 
TTITLE6=Ελένη Καραΐνδρου - ΘΕΜΑ ΤΙΤΛΩΝ Ι - Λωξάντρα 
TTITLE7=Γιώτα Βέη - ΤΡΑΓΟΥΔΙ ΛΩΞΑΝΤΡΑΣ
TTITLE8=Ελένη Καραΐνδρου - ΔΩΜΑΤΙΟ ΠΑΙΔΙΩΝΛωξάντρα 
TTITLE9=Ελένη Καραΐνδρου - ΦΕΥΓΟΥΝ ΤΑ ΠΑΙΔΙΑ ΤΗΣ - Λωξάντρα 
TTITLE10=Ελένη Καραΐνδρου - ΑΠΟΥΣΙΑ - Λωξάντρα 
TTITLE11=Ελένη Καραΐνδρου - ΘΕΜΑ Λωξάντρας Ι Ι
TTITLE12=Ελένη Καραΐνδρου - ΚΑΒΟΥΡΝΑΡΙΟ ΙΙ - Λωξάντρας
TTITLE13=Ελένη Καραΐνδρου - ΘΕΜΑ Λωξάντρας ΙΙΙ
TTITLE14=Ελένη Καραΐνδρου - ΘΕΜΑ ΤΙΤΛΩΝ ΙΙ - Λωξάντρα 
TTITLE15=Ελένη Καραΐνδρου - ΘΕΜΑ Λωξάντρας ΙV
TTITLE16=Ελένη Καραΐνδρου - ΑΝΑΠΟΛΗΣΗ ΙΙ - Λωξάντρα 
TTITLE17=Ελένη Καραΐνδρου - ΜΝΗΜΕΣ - Λωξάντρα 
TTITLE18=Ελένη Καραΐνδρου - ΣΠΣΡΑΓΜΟΣ - Λωξάντρα 
TTITLE19=Ελένη Καραΐνδρου - ΘΕΜΑ ΤΙΤΛΩΝ ΙΙΙ - Λωξάντρα 
TTITLE20=Ελένη Καραΐνδρου - ΤΙΤΛΟΙ  - Γαλήνη (1976)
TTITLE21=Ελένη Καραΐνδρου - ΘΕΜΑ ΦΛΟΓΕΡΑΣ - Γαλήνη (1976)
TTITLE22=Ελένη Καραΐνδρου - ΣΥΓΚΡΟΥΣΗ - Γαλήνη (1976)
TTITLE23=Ελένη Καραΐνδρου - ΦΛΟΓΕΡΑ - Γαλήνη (1976)
TTITLE24=Ελένη Καραΐνδρου - ΘΕΜΑ ΤΙΤΛΩΝ Ι Γαλήνη (1976)
TTITLE25=Ελένη Καραΐνδρου - ΚΑΜΠΑΝΕΣ - Γαλήνη (1976)
TTITLE26=Ελένη Καραΐνδρου - ΝΟΣΤΑΛΓΙΚΟ - Γαλήνη (1976)
TTITLE27=Ελένη Καραΐνδρου - ΘΕΜΑ ΤΙΤΛΩΝ ΙΙ - Γαλήνη (1976)
TTITLE28=Ελένη Καραΐνδρου - ΘΕΜΑ ΦΛΟΓΕΡΑΣ ΙΙ - Γαλήνη (1976)
TTITLE29=Ελένη Καραΐνδρου - ΤΙΤΛΟΙ - ΠΑΡΑΛΑΓΗ Ι - Γαλήνη (1976)
TTITLE30=Ελένη Καραΐνδρου - ΤΙΤΛΟΙ - ΟΔΟΙΠΟΡΙΚΟ - Καλή σου νύχτα Κυρ Αλέξανδρε
TTITLE30=(1981)
TTITLE31=Ελένη Καραΐνδρου - ΕΜΟΝΗ - ΟΡΑΜΑ -Καλή σου νύχτα Κυρ Αλέξανδρε (1981)
TTITLE32=Ελένη Καραΐνδρου - ΚΕΝΤΡΙΚΟ ΜΟΤΙΒΟ - Καλή σου νύχτα Κυρ Αλέξανδρε (19
TTITLE32=81)
TTITLE33=Ελένη Καραΐνδρου - ΤΑΡΑΧΗ - Καλή σου νύχτα Κυρ Αλέξανδρε (1981)
TTITLE34=Ελένη Καραΐνδρου - ΒΥΖΑΝΤΙΝΟ - Καλή σου νύχτα Κυρ Αλέξανδρε (1981)
TTITLE35=Ελένη Καραΐνδρου - ΤΙΤΛΟΙ - Ο Πατούχας (1984)
TTITLE36=Ελένη Καραΐνδρου - ΑΤΜΠΣΦΑΙΡΙΚΟ - Ο Πατούχας (1984)
TTITLE37=Ελένη Καραΐνδρου - ΘΕΜΑ ΜΕ ΦΛΟΓΕΡΑ - Ο Πατούχας (1984)
TTITLE38=Ελένη Καραΐνδρου - ΘΕΜΑ ΤΙΤΛΩΝ - Ο Πατούχας (1984)
TTITLE39=Ελένη Καραΐνδρου - ΔΟΞΑΣΤΙΚΟ - Ο Πατούχας (1984)
TTITLE40=Ελένη Καραΐνδρου - ΣΗΜΕΡΟΝ ΤΩΝ ΥΔΑΤΩΝ - Ο Πατούχας (1984)
TTITLE41=Ελένη Καραΐνδρου - ΘΕΜΑ ΜΕ ΦΛΟΓΕΡΑ ΙΙ - Ο Πατούχας (1984)
TTITLE42=Ελένη Καραΐνδρου - Η ΖΩΗ ΕΝ ΤΑΦΩ - Ο Πατούχας (1984)
TTITLE43=Ελένη Καραΐνδρου - ΤΙΤΛΟΙ - Ο Πατούχας (1984)
EXTD=
EXTT0=
EXTT1=
EXTT2=
EXTT3=
EXTT4=
EXTT5=
EXTT6=
EXTT7=
EXTT8=
EXTT9=
EXTT10=
EXTT11=
EXTT12=
EXTT13=
EXTT14=
EXTT15=
EXTT16=
EXTT17=
EXTT18=
EXTT19=
EXTT20=
EXTT21=
EXTT22=
EXTT23=
EXTT24=
EXTT25=
EXTT26=
EXTT27=
EXTT28=
EXTT29=
EXTT30=
EXTT31=
EXTT32=
EXTT33=
EXTT34=
EXTT35=
EXTT36=
EXTT37=
EXTT38=
EXTT39=
EXTT40=
EXTT41=
EXTT42=
EXTT43=
PLAYORDER=
